<svg id="visual" viewBox="0 0 960 540" width="960" height="540" xmlns="http://www.w3.org/2000/svg" xmlns:xlink="http://www.w3.org/1999/xlink" version="1.1"><rect x="0" y="0" width="960" height="540" fill="#decaa9"></rect><path d="M475 0L471 10C467 20 459 40 456.3 60C453.7 80 456.3 100 446.5 120C436.7 140 414.3 160 415.5 180C416.7 200 441.3 220 438.2 240C435 260 404 280 387.8 300C371.7 320 370.3 340 383 360C395.7 380 422.3 400 424.3 420C426.3 440 403.7 460 402.2 480C400.7 500 420.3 520 430.2 530L440 540L0 540L0 530C0 520 0 500 0 480C0 460 0 440 0 420C0 400 0 380 0 360C0 340 0 320 0 300C0 280 0 260 0 240C0 220 0 200 0 180C0 160 0 140 0 120C0 100 0 80 0 60C0 40 0 20 0 10L0 0Z" fill="#a4b07e"></path><path d="M375 0L357.8 10C340.7 20 306.3 40 302 60C297.7 80 323.3 100 331.7 120C340 140 331 160 334 180C337 200 352 220 348.5 240C345 260 323 280 304 300C285 320 269 340 280.7 360C292.3 380 331.7 400 352.5 420C373.3 440 375.7 460 371.2 480C366.7 500 355.3 520 349.7 530L344 540L0 540L0 530C0 520 0 500 0 480C0 460 0 440 0 420C0 400 0 380 0 360C0 340 0 320 0 300C0 280 0 260 0 240C0 220 0 200 0 180C0 160 0 140 0 120C0 100 0 80 0 60C0 40 0 20 0 10L0 0Z" fill="#819368"></path><path d="M258 0L269.2 10C280.3 20 302.7 40 307.8 60C313 80 301 100 287 120C273 140 257 160 260.3 180C263.7 200 286.3 220 291.2 240C296 260 283 280 264.8 300C246.7 320 223.3 340 212.3 360C201.3 380 202.7 400 224.3 420C246 440 288 460 297.3 480C306.7 500 283.3 520 271.7 530L260 540L0 540L0 530C0 520 0 500 0 480C0 460 0 440 0 420C0 400 0 380 0 360C0 340 0 320 0 300C0 280 0 260 0 240C0 220 0 200 0 180C0 160 0 140 0 120C0 100 0 80 0 60C0 40 0 20 0 10L0 0Z" fill="#607752"></path><path d="M215 0L221.3 10C227.7 20 240.3 40 243.8 60C247.3 80 241.7 100 240.5 120C239.3 140 242.7 160 231.2 180C219.7 200 193.3 220 185.2 240C177 260 187 280 203 300C219 320 241 340 245 360C249 380 235 400 233.5 420C232 440 243 460 237 480C231 500 208 520 196.5 530L185 540L0 540L0 530C0 520 0 500 0 480C0 460 0 440 0 420C0 400 0 380 0 360C0 340 0 320 0 300C0 280 0 260 0 240C0 220 0 200 0 180C0 160 0 140 0 120C0 100 0 80 0 60C0 40 0 20 0 10L0 0Z" fill="#425b3e"></path><path d="M172 0L173 10C174 20 176 40 164 60C152 80 126 100 113 120C100 140 100 160 101.3 180C102.7 200 105.3 220 121 240C136.7 260 165.3 280 178 300C190.7 320 187.3 340 174.3 360C161.3 380 138.7 400 124.7 420C110.7 440 105.3 460 113.5 480C121.7 500 143.3 520 154.2 530L165 540L0 540L0 530C0 520 0 500 0 480C0 460 0 440 0 420C0 400 0 380 0 360C0 340 0 320 0 300C0 280 0 260 0 240C0 220 0 200 0 180C0 160 0 140 0 120C0 100 0 80 0 60C0 40 0 20 0 10L0 0Z" fill="#27412b"></path><path d="M93 0L95.8 10C98.7 20 104.3 40 100.2 60C96 80 82 100 80.8 120C79.7 140 91.3 160 93.5 180C95.7 200 88.3 220 91 240C93.7 260 106.3 280 102.3 300C98.3 320 77.7 340 67 360C56.3 380 55.7 400 57 420C58.3 440 61.7 460 67.2 480C72.7 500 80.3 520 84.2 530L88 540L0 540L0 530C0 520 0 500 0 480C0 460 0 440 0 420C0 400 0 380 0 360C0 340 0 320 0 300C0 280 0 260 0 240C0 220 0 200 0 180C0 160 0 140 0 120C0 100 0 80 0 60C0 40 0 20 0 10L0 0Z" fill="#0d2818"></path></svg>