<svg id="visual" viewBox="0 0 960 540" width="960" height="540" xmlns="http://www.w3.org/2000/svg" xmlns:xlink="http://www.w3.org/1999/xlink" version="1.1"><path d="M0 60L80 57.3C160 54.7 320 49.3 480 51.2C640 53 800 62 880 66.5L960 71L960 0L880 0C800 0 640 0 480 0C320 0 160 0 80 0L0 0Z" fill="#decaa9"></path><path d="M0 98L80 90C160 82 320 66 480 70.5C640 75 800 100 880 112.5L960 125L960 69L880 64.5C800 60 640 51 480 49.2C320 47.3 160 52.7 80 55.3L0 58Z" fill="#d8c7a3"></path><path d="M0 120L80 123.5C160 127 320 134 480 150.2C640 166.3 800 191.7 880 204.3L960 217L960 123L880 110.5C800 98 640 73 480 68.5C320 64 160 80 80 88L0 96Z" fill="#d3c49e"></path><path d="M0 309L80 291.8C160 274.7 320 240.3 480 249.3C640 258.3 800 310.7 880 336.8L960 363L960 215L880 202.3C800 189.7 640 164.3 480 148.2C320 132 160 125 80 121.5L0 118Z" fill="#cdc199"></path><path d="M0 336L80 335C160 334 320 332 480 349C640 366 800 402 880 420L960 438L960 361L880 334.8C800 308.7 640 256.3 480 247.3C320 238.3 160 272.7 80 289.8L0 307Z" fill="#c6bd93"></path><path d="M0 368L80 369.8C160 371.7 320 375.3 480 390.7C640 406 800 433 880 446.5L960 460L960 436L880 418C800 400 640 364 480 347C320 330 160 332 80 333L0 334Z" fill="#c0bb8f"></path><path d="M0 411L80 409.3C160 407.7 320 404.3 480 413.3C640 422.3 800 443.7 880 454.3L960 465L960 458L880 444.5C800 431 640 404 480 388.7C320 373.3 160 369.7 80 367.8L0 366Z" fill="#b9b88a"></path><path d="M0 482L80 481C160 480 320 478 480 478C640 478 800 480 880 481L960 482L960 463L880 452.3C800 441.7 640 420.3 480 411.3C320 402.3 160 405.7 80 407.3L0 409Z" fill="#b2b586"></path><path d="M0 541L80 537.3C160 533.7 320 526.3 480 525.5C640 524.7 800 530.3 880 533.2L960 536L960 480L880 479C800 478 640 476 480 476C320 476 160 478 80 479L0 480Z" fill="#abb382"></path><path d="M0 541L80 541C160 541 320 541 480 541C640 541 800 541 880 541L960 541L960 534L880 531.2C800 528.3 640 522.7 480 523.5C320 524.3 160 531.7 80 535.3L0 539Z" fill="#a4b07e"></path></svg>